<svg xmlns="http://www.w3.org/2000/svg" viewBox="0 0 64 64" role="img" aria-label="Bible icon">
  <rect x="2" y="2" width="60" height="60" rx="12" fill="#ffffff" stroke="#0f172a" stroke-width="3"/>
  <path d="M10 16h20v32H10c-1.1 0-2-.9-2-2V18c0-1.1.9-2 2-2Z" fill="#ffffff" stroke="#0f172a" stroke-width="2"/>
  <path d="M54 16H34v32h20c1.1 0 2-.9 2-2V18c0-1.1-.9-2-2-2Z" fill="#f8fafc" stroke="#0f172a" stroke-width="2"/>
  <rect x="31" y="15" width="2" height="34" fill="#0f172a"/>
  <rect x="24" y="22" width="16" height="4" rx="1" fill="#b45309"/>
  <rect x="30" y="18" width="4" height="12" rx="1" fill="#b45309"/>
  <path d="M10 48c5 0 7 2 12 2s7-2 12-2 7 2 12 2 7-2 12-2" fill="none" stroke="#64748b" stroke-width="2"/>
</svg>
