<svg xmlns="http://www.w3.org/2000/svg" viewBox="0 0 64 64" role="img" aria-label="Bible icon">
  <rect width="64" height="64" rx="12" fill="#111827"/>
  <path d="M10 16h20v32H10c-1.1 0-2-.9-2-2V18c0-1.1.9-2 2-2Z" fill="#f8fafc"/>
  <path d="M54 16H34v32h20c1.1 0 2-.9 2-2V18c0-1.1-.9-2-2-2Z" fill="#f1f5f9"/>
  <rect x="31" y="15" width="2" height="34" fill="#e2e8f0"/>
  <rect x="24" y="22" width="16" height="4" rx="1" fill="#fbbf24"/>
  <rect x="30" y="18" width="4" height="12" rx="1" fill="#fbbf24"/>
  <path d="M10 48c5 0 7 2 12 2s7-2 12-2 7 2 12 2 7-2 12-2" fill="none" stroke="#94a3b8" stroke-width="2"/>
</svg>
